<svg xmlns="http://www.w3.org/2000/svg" xmlns:xlink="http://www.w3.org/1999/xlink" width="120" height="90" viewBox="0 0 120 90" fill="none"><defs><rect id="path_0" x="0" y="0" width="120" height="90" /></defs><g opacity="1" transform="translate(0 0)  rotate(0 60 45)"><mask id="bg-mask-0" fill="white"><use xlink:href="#path_0"></use></mask><g mask="url(#bg-mask-0)" ><g opacity="1" transform="translate(23.99999999999997 9)  rotate(0 36 36)"><path id="圆形 4" fill-rule="evenodd" style="fill:#E6E6E6" transform="translate(0 0)  rotate(0 36 36)" opacity="1" d="M36,0C16.12,0 0,16.12 0,36C0,55.88 16.12,72 36,72C55.88,72 72,55.88 72,36C72,16.12 55.88,0 36,0Z " /><g opacity="1" transform="translate(10.07584797761287 11.578848137279909)  rotate(0 25.924152022387283 25.924152022387265)"><g opacity="1" transform="translate(5.339996916963002 2.5193742868698874)  rotate(0 20.584155105424337 22.70266528491097)"><path id="路径 2" fill-rule="evenodd" style="fill:#FBFCFC" transform="translate(0 20.164258732718736)  rotate(0 20.584155105424337 7.723236956669541)" opacity="0.6" d="M0,2.48C0,2.86 0.2,3.22 0.53,3.41L19.04,14.52C19.99,15.09 21.18,15.09 22.13,14.52L40.64,3.41C40.97,3.22 41.17,2.86 41.17,2.48C41.17,2.1 40.97,1.75 40.64,1.56L38.05,0L22.13,9.55C21.18,10.12 19.99,10.12 19.04,9.55L3.12,0L0.53,1.56C0.2,1.75 0,2.1 0,2.48Z " /><path id="路径 3" fill-rule="evenodd" style="fill:#FBFCFC" transform="translate(0 30.317884941487137)  rotate(0 20.584155105424337 7.5437228141674035)" opacity="0.6" d="M40.64,3.41C40.97,3.22 41.17,2.86 41.17,2.48C41.17,2.1 40.97,1.75 40.64,1.56L38.05,0L22.13,9.55C21.18,10.12 19.99,10.12 19.04,9.55L3.12,0L0.53,1.56C0.2,1.75 0,2.1 0,2.48C0,2.86 0.2,3.22 0.53,3.41L19.47,14.78C20.16,15.19 21.01,15.19 21.7,14.78L40.64,3.41Z " /><path id="路径 4" fill-rule="evenodd" style="fill:#FDFDFD" transform="translate(0 0)  rotate(0 20.584155105424337 12.782561868691495)" opacity="1" d="M40.64,13.53C40.97,13.33 41.17,12.98 41.17,12.6C41.17,12.22 40.97,11.87 40.64,11.68L21.69,0.31L21.7,0.31C21.01,-0.1 20.16,-0.1 19.47,0.31L0.53,11.68C0.2,11.87 0,12.22 0,12.6C0,12.98 0.2,13.33 0.53,13.53L19.04,24.64C19.99,25.21 21.18,25.21 22.13,24.64L40.64,13.53Z " /></g></g></g><g opacity="1" transform="translate(85.5 7.5)  rotate(0 12 9)"><path id="圆形 2" fill-rule="evenodd" style="fill:#E6E6E6" transform="translate(0 0)  rotate(0 5.25 5.25)" opacity="1" d="M5.25,0C2.35,0 0,2.35 0,5.25C0,8.15 2.35,10.5 5.25,10.5C8.15,10.5 10.5,8.15 10.5,5.25C10.5,2.35 8.15,0 5.25,0Z " /><path id="圆形 2" fill-rule="evenodd" style="fill:#E6E6E6" transform="translate(18.75 12.75)  rotate(0 2.625 2.625)" opacity="1" d="M2.63,0C1.18,0 0,1.18 0,2.63C0,4.07 1.18,5.25 2.63,5.25C4.07,5.25 5.25,4.07 5.25,2.63C5.25,1.18 4.07,0 2.63,0Z " /></g><path id="圆形 2" fill-rule="evenodd" style="fill:#E6E6E6" transform="translate(17.25 63)  rotate(0 3.75 3.75)" opacity="1" d="M3.75,0C1.68,0 0,1.68 0,3.75C0,5.82 1.68,7.5 3.75,7.5C5.82,7.5 7.5,5.82 7.5,3.75C7.5,1.68 5.82,0 3.75,0Z " /></g></g></svg>